<?xml version="1.0" standalone="no"?>
<!DOCTYPE svg PUBLIC "-//W3C//DTD SVG 20010904//EN"
 "http://www.w3.org/TR/2001/REC-SVG-20010904/DTD/svg10.dtd">
<svg version="1.0" xmlns="http://www.w3.org/2000/svg"
 width="900.000000pt" height="900.000000pt" viewBox="0 0 900.000000 900.000000"
 preserveAspectRatio="xMidYMid meet">
<metadata>
Created by potrace 1.14, written by Peter Selinger 2001-2017
</metadata>
<g transform="translate(0.000000,900.000000) scale(0.100000,-0.100000)"
fill="#000000" stroke="none">
<path d="M5225 6984 c-437 -26 -798 -150 -1111 -382 -117 -86 -303 -273 -393
-394 -257 -348 -391 -759 -423 -1302 -51 -863 280 -1614 892 -2023 265 -177
545 -280 880 -324 120 -15 428 -15 540 0 320 44 614 146 860 299 285 177 521
443 680 766 165 337 242 696 243 1131 0 447 -76 799 -249 1153 -125 254 -285
459 -484 621 -361 294 -755 436 -1255 454 -66 2 -147 3 -180 1z m367 -510
c142 -21 258 -58 393 -124 322 -158 554 -419 689 -776 172 -457 182 -1096 25
-1567 -137 -409 -419 -716 -804 -875 -265 -109 -624 -133 -920 -61 -546 134
-950 588 -1059 1189 -32 179 -39 291 -33 540 11 484 97 827 273 1091 137 207
380 400 625 497 251 100 524 129 811 86z"/>
<path d="M1890 4765 l0 -2145 285 0 285 0 0 2145 0 2145 -285 0 -285 0 0
-2145z"/>
</g>
</svg>
